Coordinates
version=1
nRows=21
nColumns=12
inDegrees=yes

Units are S.I. units (second, meters, Newtons, ...)
Angles are in degrees

endheader
time	SC_y	SC_z	SC_x	AC_y	AC_z	AC_x	GH_y	GH_z	GH_yy	EL_x	PS_y
       0.0              -43.68          8.014          77.43          32.49          7.098         -12.25          35.95          9.585          48.74          128.0          58.56
   0.03023              -43.68          8.018          77.43          32.49          7.095         -12.25          35.93          9.588          48.74          128.0          58.56
   0.06046              -43.68          8.022          77.43          32.49          7.092         -12.25           35.9           9.59          48.74          128.0          58.56
   0.09069              -43.67          8.027          77.43           32.5          7.088         -12.25          35.86          9.593          48.74          128.0          58.56
    0.1209              -43.67          8.032          77.42           32.5          7.084         -12.25          35.83          9.596          48.74          128.0          58.56
    0.1511              -43.67          8.037          77.42           32.5          7.081         -12.25          35.79          9.599          48.74          128.0          58.56
    0.1814              -43.66          8.042          77.42           32.5          7.076         -12.25          35.76          9.602          48.73          128.0          58.57
    0.2116              -43.66          8.048          77.41           32.5          7.072         -12.25          35.71          9.605          48.73          128.0          58.57
    0.2418              -43.65          8.055          77.41           32.5          7.067         -12.26          35.67          9.609          48.73          128.0          58.57
    0.2721              -43.65          8.062          77.41          32.51          7.062         -12.26          35.62          9.613          48.73          128.0          58.57
    0.3023              -43.65          8.069           77.4          32.51          7.057         -12.26          35.57          9.617          48.73          128.0          58.58
    0.3325              -43.64          8.077           77.4          32.51          7.051         -12.26          35.52          9.622          48.73          128.0          58.58
    0.3627              -43.64          8.085          77.39          32.51          7.044         -12.26          35.46          9.626          48.72          128.0          58.58
     0.393              -43.63          8.094          77.39          32.51          7.037         -12.26          35.39          9.632          48.72          128.0          58.59
    0.4232              -43.62          8.104          77.38          32.52           7.03         -12.27          35.32          9.637          48.72          128.0          58.59
    0.4534              -43.62          8.115          77.38          32.52          7.022         -12.27          35.25          9.644          48.72          128.0           58.6
    0.4837              -43.61          8.127          77.37          32.52          7.013         -12.27          35.17           9.65          48.71          128.0           58.6
    0.5139               -43.6          8.139          77.36          32.53          7.003         -12.27          35.08          9.658          48.71          128.0          58.61
    0.5441              -43.59          8.153          77.35          32.53          6.993         -12.28          34.98          9.666          48.71          128.0          58.61
    0.5744              -43.58          8.168          77.35          32.53          6.981         -12.28          34.87          9.674           48.7          128.0          58.62
    0.6046              -43.57          8.185          77.34          32.54          6.969         -12.28          34.76          9.684           48.7          128.0          58.62
